HIERARCHY
ROOT Hips
{
	OFFSET 0.00000 0.00000 0.00000
	CHANNELS 6 Xposition Yposition Zposition Zrotation Yrotation Xrotation 
	JOINT LHipJoint
	{
		OFFSET 0 0 0
		CHANNELS 3 Zrotation Yrotation Xrotation
		JOINT LeftHip
		{
			OFFSET 1.29432 -1.88279 0.59910
			CHANNELS 3 Zrotation Yrotation Xrotation
			JOINT LeftKnee
			{
				OFFSET 2.63039 -7.22694 0.00000
				CHANNELS 3 Zrotation Yrotation Xrotation
				JOINT LeftAnkle
				{
					OFFSET 2.70674 -7.43672 0.00000
					CHANNELS 3 Zrotation Yrotation Xrotation
					JOINT LeftToe
					{
						OFFSET 0.15066 -0.41394 2.09027
						CHANNELS 3 Zrotation Yrotation Xrotation
						End Site
						{
							OFFSET 0.00000 -0.00000 1.07518
						}
					}
				}
			}
		}
	}
	JOINT RHipJoint
	{
		OFFSET 0 0 0
		CHANNELS 3 Zrotation Yrotation Xrotation
		JOINT RightHip
		{
			OFFSET -1.37068 -1.88279 0.59910
			CHANNELS 3 Zrotation Yrotation Xrotation
			JOINT RightKnee
			{
				OFFSET -2.57023 -7.06166 0.00000
				CHANNELS 3 Zrotation Yrotation Xrotation
				JOINT RightAnkle
				{
					OFFSET -2.76461 -7.59570 0.00000
					CHANNELS 3 Zrotation Yrotation Xrotation
					JOINT RightToe
					{
						OFFSET -0.24175 -0.64785 2.19719
						CHANNELS 3 Zrotation Yrotation Xrotation
						End Site
						{
							OFFSET -0.00000 -0.00000 1.14803
						}
					}
				}
			}
		}
	}
	JOINT lowerback
	{
		OFFSET 0 0 0
		CHANNELS 3 Zrotation Yrotation Xrotation
		JOINT Chest
		{
			OFFSET -0.03138 2.03983 -0.23106
			CHANNELS 3 Zrotation Yrotation Xrotation
			JOINT Chest2
			{
				OFFSET -0.00325 2.06238 -0.06878
				CHANNELS 3 Zrotation Yrotation Xrotation
				JOINT lowerneck
				{
					OFFSET 0 0 0
					CHANNELS 3 Zrotation Yrotation Xrotation
					JOINT Neck
					{
						OFFSET -0.00002 1.75318 0.18090
						CHANNELS 3 Zrotation Yrotation Xrotation
						JOINT Head
						{
							OFFSET 0.08806 1.75856 -0.25387
							CHANNELS 3 Zrotation Yrotation Xrotation
							End Site
							{
								OFFSET 0.02554 1.78597 -0.10684
							}
						}
					}
				}
				JOINT LeftCollar
				{
					OFFSET 0 0 0
					CHANNELS 3 Zrotation Yrotation Xrotation
					JOINT LeftShoulder
					{
						OFFSET 3.09657 1.33597 -0.04414
CHANNELS 3 Zrotation Xrotation Yrotation
						JOINT LeftElbow
						{
OFFSET 0 -5.342980 -0.000000
CHANNELS 3 Zrotation Xrotation Yrotation
							JOINT LeftWrist
							{
OFFSET 0 -3.672620 -0.000000
CHANNELS 3 Zrotation Xrotation Yrotation
								JOINT lhand
								{
									OFFSET 0 0 0
CHANNELS 3 Zrotation Xrotation Yrotation
									JOINT LFingers
									{
OFFSET 0 -0.599300 -0.000000
CHANNELS 3 Zrotation Xrotation Yrotation
										End Site
										{
OFFSET 0 -0.483170 -0.000000
										}
									}
								}
								JOINT LThumb
								{
OFFSET 0 0.000000 0.000000
CHANNELS 3 Zrotation Xrotation Yrotation
									End Site
									{
OFFSET 0 -0.490550 0.490550
									}
								}
							}
						}
					}
				}
				JOINT RightCollar
				{
					OFFSET 0 0 0
					CHANNELS 3 Zrotation Yrotation Xrotation
					JOINT RightShoulder
					{
						OFFSET -3.16460 1.32273 -0.23382
CHANNELS 3 Zrotation Xrotation Yrotation
						JOINT RightElbow
						{
OFFSET 0 -5.549670 0.033480
CHANNELS 3 Zrotation Xrotation Yrotation
							JOINT RightWrist
							{
OFFSET 0 -3.694010 0.000000
CHANNELS 3 Zrotation Xrotation Yrotation
								JOINT rhand
								{
									OFFSET 0 0 0
CHANNELS 3 Zrotation Xrotation Yrotation
									JOINT RFingers
									{
OFFSET 0 -0.638110 0.000000
CHANNELS 3 Zrotation Xrotation Yrotation
										End Site
										{
OFFSET 0 -0.514460 0.000000
										}
									}
								}
								JOINT RThumb
								{
OFFSET 0 0.000000 0.000000
CHANNELS 3 Zrotation Xrotation Yrotation
									End Site
									{
OFFSET 0 -0.522320 0.522320
									}
								}
							}
						}
					}
				}
			}
		}
	}
}
MOTION
Frames: 5
Frame Time: .0083333
14.5933 10.3769 4.9829 -341.6810 -86.1616 346.0530 0.0000 0.0000 0.0000 4.1581 28.1478 -78.7147 34.2107 14.2210 135.8697 -6.4566 -48.3679 -11.2396 0.2086 -2.9403 -8.1127 0.0000 0.0000 0.0000 -3.7119 -25.8468 -80.9632 -34.4939 -13.9320 137.0343 -1.3533 35.2435 -30.9739 -2.6659 10.1336 -29.4104 -2.9276 0.3582 27.0814 0.3377 -0.8003 6.1306 2.3562 -0.5325 -8.1151 2.3870 2.4800 -15.0603 2.1079 2.6180 3.1128 0.4841 1.4064 3.7187 0.0000 0.0000 0.0000 19.1173 1.8802 -11.6945 26.0164 -37.2249 8.8976 12.3148 21.6801 -21.8132 0.0 0.0 0.0 -7.1250 0.0 0.0 -16.6532 51.4943 2.7272 0.0000 0.0000 0.0000 -17.0013 1.44 0.052 -28.2086 -39.3076 -10.2556 -31.5931 -2.9111 -28.973 0.0 0.0 0.0 7.1250 0.0 -0.0 -0.4880 -3.0445 -0.5132
14.6006 10.2451 4.9866 -332.4500 -86.1815 336.6690 0.0000 0.0000 0.0000 3.8675 29.5505 -79.2996 34.4508 13.9767 136.8557 -6.6796 -48.9650 -11.2942 0.1864 -2.7809 -7.6694 0.0000 0.0000 0.0000 -4.6657 -28.2149 -81.8837 -34.7620 -13.6469 138.1591 -1.0645 36.7141 -30.6624 -2.5684 9.9612 -28.8513 -3.4461 0.4293 27.3817 0.2407 -0.8790 6.1230 2.5794 -0.5605 -8.2619 2.3888 2.5757 -15.0506 1.9374 2.7601 3.0116 0.4365 1.4668 3.6832 -0.0000 0.0000 0.0000 18.8644 1.9525 -11.383 26.0535 -37.2614 8.92 12.5831 21.3446 -21.4093 0.0 0.0 0.0 -7.1250 0.0 0.0 -16.2157 51.1473 2.5118 -0.0000 0.0000 0.0000 -16.931 1.3071 0.1484 -28.1134 -39.2205 -10.1953 -31.6029 -2.9243 -29.0954 0.0 0.0 0.0 7.1250 0.0 -0.0 -0.4697 -3.1792 -0.4951
14.5992 10.1143 4.9869 -330.5290 -86.2347 334.3710 0.0000 0.0000 0.0000 4.2418 31.6159 -79.6780 34.6864 13.7285 137.8396 -7.2536 -49.9560 -10.5850 0.1237 -2.2676 -6.2457 0.0000 0.0000 0.0000 -5.1485 -30.5576 -82.3244 -35.0105 -13.3720 139.2226 -0.9006 37.9628 -30.7855 -2.5191 9.8725 -28.5648 -3.5103 0.4669 27.8037 0.2935 -0.8710 6.1608 2.6809 -0.5568 -8.4279 2.3537 2.6334 -15.1636 1.8004 2.8497 3.0870 0.4069 1.5059 3.7339 -0.0000 -0.0000 0.0000 18.6567 2.1172 -11.4354 26.1897 -37.3954 9.0026 13.1744 21.2379 -21.6832 0.0 0.0 0.0 -7.1250 0.0 0.0 -15.7681 51.5106 2.5823 -0.0000 -0.0000 0.0000 -16.7578 1.3552 0.2278 -28.1414 -39.2461 -10.213 -31.7322 -3.1591 -29.8387 0.0 0.0 0.0 7.1250 0.0 -0.0 -0.3961 -4.0159 -0.4229
14.5927 9.9893 4.9902 -337.3640 -86.3296 340.8360 0.0000 0.0000 0.0000 5.3027 33.8228 -80.1258 34.9263 13.4663 138.8601 -8.3392 -51.2624 -8.4593 0.0342 -1.1946 -3.2843 0.0000 0.0000 0.0000 -4.9422 -32.7322 -82.6385 -35.2388 -13.1098 140.2193 -1.1739 38.2192 -32.0279 -2.7531 10.2842 -29.9021 -2.8941 0.3755 28.1586 0.4645 -0.8150 6.1692 2.5045 -0.5404 -8.6047 2.3400 2.6764 -14.9853 1.6958 2.9269 3.0107 0.3766 1.5378 3.6732 -0.0000 0.0000 0.0000 18.72 2.4234 -12.1708 26.4218 -37.6222 9.1439 12.9525 20.835 -22.7907 0.0 0.0 0.0 -7.1250 0.0 0.0 -16.4894 52.5472 3.1318 -0.0000 0.0000 0.0000 -16.725 1.5789 0.4456 -28.1536 -39.2573 -10.2208 -31.3285 -3.0703 -30.0566 0.0 0.0 0.0 7.1250 0.0 -0.0 -0.1235 -4.1354 -0.1321
14.5966 9.8652 4.9971 -339.3400 -86.4620 342.7360 0.0000 0.0000 0.0000 5.8651 35.9741 -81.0073 35.1637 13.1971 139.8893 -9.5329 -52.4322 -5.8505 0.0005 -0.1409 -0.3870 0.0000 0.0000 0.0000 -4.7292 -34.7065 -83.6144 -35.4678 -12.8368 141.2395 -1.6525 37.8555 -33.6690 -3.1624 10.9534 -32.1227 -2.6153 0.3991 28.2741 0.6221 -0.6929 6.1442 2.4806 -0.4855 -8.6988 2.2925 2.7626 -14.7106 1.5296 3.0768 2.6773 0.3326 1.5980 3.5031 -0.0000 -0.0000 0.0000 18.6258 2.4361 -12.537 26.3283 -37.531 9.0869 12.6845 20.5889 -23.5304 0.0 0.0 0.0 -7.1250 0.0 0.0 -17.1110 53.2137 3.5391 -0.0000 -0.0000 0.0000 -17.0271 1.6792 0.7509 -28.0252 -39.1394 -10.1396 -31.4852 -3.2223 -29.315 0.0 0.0 0.0 7.1250 0.0 -0.0 -0.3594 -3.383 -0.38
